<svg width="59" height="59" viewBox="0 0 59 59" fill="none" xmlns="http://www.w3.org/2000/svg">
<path d="M57.8958 4.9339H46.8565V1.10419C46.8565 0.875749 46.7658 0.656666 46.6042 0.495136C46.4427 0.333606 46.2236 0.242859 45.9952 0.242859H42.3225C42.2094 0.242794 42.0973 0.265029 41.9928 0.308292C41.8883 0.351555 41.7933 0.414997 41.7133 0.494992C41.6333 0.574987 41.5699 0.669964 41.5266 0.774494C41.4833 0.879025 41.4611 0.991058 41.4612 1.10419V4.9339H32.1977V1.10419C32.1978 0.991058 32.1755 0.879025 32.1323 0.774494C32.089 0.669964 32.0256 0.574987 31.9456 0.494992C31.8656 0.414997 31.7706 0.351555 31.6661 0.308292C31.5615 0.265029 31.4495 0.242794 31.3364 0.242859H27.6637C27.5505 0.242794 27.4385 0.265029 27.334 0.308292C27.2294 0.351555 27.1345 0.414997 27.0545 0.494992C26.9745 0.574987 26.911 0.669964 26.8678 0.774494C26.8245 0.879025 26.8023 0.991058 26.8023 1.10419V4.9339H17.5399V1.10419C17.5399 0.991058 17.5177 0.879025 17.4744 0.774494C17.4312 0.669964 17.3677 0.574987 17.2877 0.494992C17.2077 0.414997 17.1128 0.351555 17.0082 0.308292C16.9037 0.265029 16.7917 0.242794 16.6785 0.242859H13.0048C12.7764 0.242859 12.5573 0.333606 12.3958 0.495136C12.2343 0.656666 12.1435 0.875749 12.1435 1.10419V4.9339H1.10425C0.991119 4.93383 0.879086 4.95607 0.774555 4.99933C0.670025 5.04259 0.575048 5.10604 0.495053 5.18603C0.415058 5.26603 0.351616 5.361 0.308353 5.46553C0.26509 5.57006 0.242855 5.6821 0.24292 5.79523V57.8957C0.242855 58.0089 0.26509 58.1209 0.308353 58.2254C0.351616 58.33 0.415058 58.4249 0.495053 58.5049C0.575048 58.5849 0.670025 58.6484 0.774555 58.6916C0.879086 58.7349 0.991119 58.7571 1.10425 58.7571H57.8958C58.0089 58.7571 58.121 58.7349 58.2255 58.6916C58.33 58.6484 58.425 58.5849 58.505 58.5049C58.585 58.4249 58.6484 58.33 58.6917 58.2254C58.735 58.1209 58.7572 58.0089 58.7571 57.8957V5.79523C58.7572 5.6821 58.735 5.57006 58.6917 5.46553C58.6484 5.361 58.585 5.26603 58.505 5.18603C58.425 5.10604 58.33 5.04259 58.2255 4.99933C58.121 4.95607 58.0089 4.93383 57.8958 4.9339ZM43.1828 1.96552H45.1329V9.62494H43.1828V1.96552ZM28.524 1.96552H30.4741V9.62494H28.525L28.524 1.96552ZM13.8652 1.96552H15.8172V9.62494H13.8662L13.8652 1.96552ZM1.96558 6.65655H12.1435V10.4863C12.1435 10.7147 12.2343 10.9338 12.3958 11.0953C12.5573 11.2568 12.7764 11.3476 13.0048 11.3476H16.6776C16.7907 11.3477 16.9027 11.3254 17.0072 11.2822C17.1118 11.2389 17.2068 11.1755 17.2867 11.0955C17.3667 11.0155 17.4302 10.9205 17.4734 10.816C17.5167 10.7114 17.5389 10.5994 17.5389 10.4863V6.65655H26.8023V10.4863C26.8023 10.5994 26.8245 10.7114 26.8678 10.816C26.911 10.9205 26.9745 11.0155 27.0545 11.0955C27.1345 11.1755 27.2294 11.2389 27.334 11.2822C27.4385 11.3254 27.5505 11.3477 27.6637 11.3476H31.3364C31.4495 11.3477 31.5615 11.3254 31.6661 11.2822C31.7706 11.2389 31.8656 11.1755 31.9456 11.0955C32.0256 11.0155 32.089 10.9205 32.1323 10.816C32.1755 10.7114 32.1978 10.5994 32.1977 10.4863V6.65655H41.4602V10.4863C41.4601 10.5994 41.4823 10.7114 41.5256 10.816C41.5689 10.9205 41.6323 11.0155 41.7123 11.0955C41.7923 11.1755 41.8873 11.2389 41.9918 11.2822C42.0963 11.3254 42.2084 11.3477 42.3215 11.3476H45.9942C46.2226 11.3476 46.4417 11.2568 46.6033 11.0953C46.7648 10.9338 46.8555 10.7147 46.8555 10.4863V6.65655H57.0335V16.5126H1.96558V6.65655ZM1.96558 57.0344V18.2353H57.0345V57.0344H1.96558Z" fill="#251B6A"/>
<path d="M11.6139 22.1245C10.8319 22.1245 10.0675 22.3564 9.41732 22.7908C8.76713 23.2253 8.26037 23.8428 7.96112 24.5652C7.66187 25.2877 7.58357 26.0826 7.73613 26.8496C7.88868 27.6165 8.26524 28.321 8.81818 28.874C9.37112 29.4269 10.0756 29.8035 10.8426 29.956C11.6095 30.1086 12.4045 30.0303 13.1269 29.731C13.8494 29.4318 14.4669 28.925 14.9013 28.2748C15.3358 27.6246 15.5676 26.8602 15.5676 26.0782C15.5666 25.03 15.1497 24.0249 14.4085 23.2837C13.6672 22.5424 12.6622 22.1256 11.6139 22.1245ZM11.6139 28.3093C11.1726 28.3093 10.7413 28.1785 10.3744 27.9333C10.0075 27.6882 9.72151 27.3397 9.55265 26.932C9.38378 26.5244 9.3396 26.0758 9.42568 25.643C9.51177 25.2102 9.72426 24.8127 10.0363 24.5006C10.3483 24.1886 10.7458 23.9761 11.1786 23.89C11.6114 23.8039 12.06 23.8481 12.4677 24.017C12.8754 24.1859 13.2238 24.4718 13.469 24.8387C13.7141 25.2056 13.845 25.637 13.845 26.0782C13.8445 26.6698 13.6092 27.237 13.1909 27.6553C12.7726 28.0736 12.2055 28.3088 11.6139 28.3093Z" fill="#251B6A"/>
<path d="M23.5382 22.1245C22.7562 22.1245 21.9918 22.3564 21.3416 22.7908C20.6914 23.2253 20.1847 23.8428 19.8854 24.5652C19.5862 25.2877 19.5079 26.0826 19.6604 26.8496C19.813 27.6165 20.1896 28.321 20.7425 28.874C21.2954 29.4269 21.9999 29.8035 22.7669 29.956C23.5338 30.1086 24.3288 30.0303 25.0512 29.731C25.7737 29.4318 26.3912 28.925 26.8256 28.2748C27.2601 27.6246 27.492 26.8602 27.492 26.0782C27.4908 25.03 27.0739 24.025 26.3326 23.2838C25.5914 22.5426 24.5865 22.1257 23.5382 22.1245ZM23.5382 28.3093C23.097 28.3093 22.6656 28.1785 22.2987 27.9333C21.9318 27.6882 21.6458 27.3397 21.477 26.932C21.3081 26.5244 21.2639 26.0758 21.35 25.643C21.4361 25.2102 21.6486 24.8127 21.9606 24.5006C22.2726 24.1886 22.6702 23.9761 23.103 23.89C23.5357 23.8039 23.9843 23.8481 24.392 24.017C24.7997 24.1859 25.1481 24.4718 25.3933 24.8387C25.6385 25.2056 25.7693 25.637 25.7693 26.0782C25.7687 26.6698 25.5334 27.2369 25.1151 27.6551C24.6968 28.0734 24.1297 28.3087 23.5382 28.3093Z" fill="#251B6A"/>
<path d="M35.4618 22.1245C34.6798 22.1245 33.9154 22.3564 33.2652 22.7908C32.615 23.2253 32.1083 23.8428 31.809 24.5652C31.5098 25.2877 31.4315 26.0826 31.584 26.8496C31.7366 27.6165 32.1131 28.321 32.6661 28.874C33.219 29.4269 33.9235 29.8035 34.6905 29.956C35.4574 30.1086 36.2524 30.0303 36.9748 29.731C37.6973 29.4318 38.3148 28.925 38.7492 28.2748C39.1837 27.6246 39.4155 26.8602 39.4155 26.0782C39.4144 25.03 38.9974 24.025 38.2562 23.2838C37.515 22.5426 36.51 22.1257 35.4618 22.1245ZM35.4618 28.3093C35.0205 28.3093 34.5892 28.1785 34.2223 27.9333C33.8554 27.6882 33.5694 27.3397 33.4005 26.932C33.2317 26.5244 33.1875 26.0758 33.2736 25.643C33.3597 25.2102 33.5722 24.8127 33.8842 24.5006C34.1962 24.1886 34.5937 23.9761 35.0265 23.89C35.4593 23.8039 35.9079 23.8481 36.3156 24.017C36.7233 24.1859 37.0717 24.4718 37.3169 24.8387C37.562 25.2056 37.6929 25.637 37.6929 26.0782C37.6924 26.6698 37.4571 27.237 37.0388 27.6553C36.6205 28.0736 36.0534 28.3088 35.4618 28.3093Z" fill="#251B6A"/>
<path d="M47.3861 22.1245C46.6041 22.1244 45.8397 22.3562 45.1894 22.7906C44.5392 23.225 44.0323 23.8424 43.733 24.5649C43.4337 25.2873 43.3553 26.0823 43.5078 26.8493C43.6603 27.6163 44.0368 28.3208 44.5897 28.8738C45.1427 29.4268 45.8471 29.8034 46.6141 29.956C47.3811 30.1086 48.1761 30.0303 48.8985 29.7311C49.621 29.4319 50.2385 28.9251 50.673 28.2749C51.1075 27.6247 51.3394 26.8603 51.3394 26.0783C51.3383 25.0301 50.9215 24.0251 50.1804 23.2839C49.4392 22.5426 48.4343 22.1257 47.3861 22.1245ZM47.3861 28.3093C46.9448 28.3094 46.5134 28.1787 46.1465 27.9336C45.7795 27.6885 45.4935 27.3401 45.3245 26.9324C45.1556 26.5247 45.1113 26.0761 45.1974 25.6433C45.2834 25.2105 45.4958 24.8129 45.8078 24.5008C46.1198 24.1887 46.5174 23.9762 46.9502 23.8901C47.383 23.8039 47.8316 23.8481 48.2393 24.017C48.647 24.1858 48.9955 24.4718 49.2407 24.8387C49.4858 25.2056 49.6167 25.637 49.6167 26.0783C49.6162 26.6697 49.381 27.2368 48.9628 27.6551C48.5447 28.0734 47.9776 28.3087 47.3861 28.3093Z" fill="#251B6A"/>
<path d="M11.6139 33.6836C10.8318 33.6835 10.0672 33.9153 9.41687 34.3498C8.76652 34.7843 8.25962 35.4018 7.96027 36.1244C7.66093 36.8469 7.58258 37.642 7.73514 38.4091C7.8877 39.1762 8.26431 39.8808 8.81735 40.4339C9.37039 40.9869 10.075 41.3635 10.8421 41.5161C11.6092 41.6687 12.4043 41.5903 13.1269 41.291C13.8494 40.9916 14.467 40.4847 14.9014 39.8344C15.3359 39.184 15.5677 38.4194 15.5676 37.6373C15.5665 36.5891 15.1495 35.5841 14.4083 34.8429C13.6671 34.1017 12.6621 33.6848 11.6139 33.6836ZM11.6139 39.8689C11.1725 39.869 10.741 39.7382 10.374 39.4931C10.0069 39.2479 9.72083 38.8994 9.55185 38.4917C9.38287 38.0839 9.33861 37.6352 9.42466 37.2023C9.51071 36.7694 9.72321 36.3717 10.0353 36.0595C10.3473 35.7474 10.745 35.5348 11.1779 35.4487C11.6108 35.3625 12.0595 35.4067 12.4673 35.5756C12.8751 35.7445 13.2236 36.0305 13.4689 36.3975C13.7141 36.7645 13.845 37.1959 13.845 37.6373C13.8438 38.2285 13.6083 38.7951 13.1901 39.213C12.7719 39.6308 12.2051 39.8658 11.6139 39.8664V39.8689Z" fill="#251B6A"/>
<path d="M23.5382 33.6836C22.7561 33.6835 21.9915 33.9153 21.3412 34.3498C20.6908 34.7843 20.1839 35.4018 19.8846 36.1244C19.5852 36.8469 19.5069 37.642 19.6595 38.4091C19.812 39.1762 20.1886 39.8808 20.7417 40.4339C21.2947 40.9869 21.9993 41.3635 22.7664 41.5161C23.5335 41.6687 24.3286 41.5903 25.0512 41.291C25.7737 40.9916 26.3913 40.4847 26.8258 39.8344C27.2602 39.184 27.4921 38.4194 27.492 37.6373C27.4907 36.5891 27.0737 35.5842 26.3325 34.8431C25.5913 34.1019 24.5864 33.6849 23.5382 33.6836ZM23.5382 39.8689C23.0968 39.869 22.6653 39.7382 22.2983 39.4931C21.9312 39.2479 21.6451 38.8994 21.4762 38.4917C21.3072 38.0839 21.2629 37.6352 21.349 37.2023C21.435 36.7694 21.6475 36.3717 21.9596 36.0595C22.2717 35.7474 22.6693 35.5348 23.1022 35.4487C23.5351 35.3625 23.9838 35.4067 24.3916 35.5756C24.7994 35.7445 25.148 36.0305 25.3932 36.3975C25.6384 36.7645 25.7693 37.1959 25.7693 37.6373C25.768 38.2285 25.5325 38.795 25.1143 39.2128C24.6961 39.6306 24.1294 39.8657 23.5382 39.8664V39.8689Z" fill="#251B6A"/>
<path d="M35.4618 33.6836C34.6797 33.6835 33.9151 33.9153 33.2648 34.3498C32.6144 34.7843 32.1075 35.4018 31.8082 36.1244C31.5088 36.8469 31.4305 37.642 31.583 38.4091C31.7356 39.1762 32.1122 39.8808 32.6652 40.4339C33.2183 40.9869 33.9229 41.3635 34.69 41.5161C35.4571 41.6687 36.2522 41.5903 36.9748 41.291C37.6973 40.9916 38.3149 40.4847 38.7493 39.8344C39.1838 39.184 39.4156 38.4194 39.4155 37.6373C39.4142 36.5891 38.9973 35.5842 38.2561 34.8431C37.5149 34.1019 36.51 33.6849 35.4618 33.6836ZM35.4618 39.8689C35.0204 39.869 34.5889 39.7382 34.2219 39.4931C33.8548 39.2479 33.5687 38.8994 33.3997 38.4917C33.2308 38.0839 33.1865 37.6352 33.2726 37.2023C33.3586 36.7694 33.5711 36.3717 33.8832 36.0595C34.1952 35.7474 34.5929 35.5348 35.0258 35.4487C35.4587 35.3625 35.9074 35.4067 36.3152 35.5756C36.723 35.7445 37.0715 36.0305 37.3168 36.3975C37.562 36.7645 37.6929 37.1959 37.6929 37.6373C37.6917 38.2285 37.4562 38.7951 37.038 39.213C36.6198 39.6308 36.053 39.8658 35.4618 39.8664V39.8689Z" fill="#251B6A"/>
<path d="M47.3861 33.6836C46.604 33.6834 45.8394 33.9152 45.189 34.3496C44.5385 34.784 44.0316 35.4015 43.7321 36.124C43.4327 36.8466 43.3543 37.6417 43.5068 38.4088C43.6593 39.176 44.0359 39.8806 44.5889 40.4337C45.1419 40.9868 45.8465 41.3635 46.6137 41.5161C47.3808 41.6687 48.1759 41.5903 48.8985 41.291C49.6211 40.9917 50.2387 40.4848 50.6731 39.8344C51.1076 39.1841 51.3395 38.4195 51.3394 37.6373C51.3382 36.5892 50.9213 35.5843 50.1802 34.8431C49.4391 34.1019 48.4343 33.6849 47.3861 33.6836ZM47.3861 39.8689C46.9447 39.8691 46.5132 39.7384 46.1461 39.4933C45.779 39.2482 45.4928 38.8997 45.3237 38.492C45.1547 38.0842 45.1103 37.6355 45.1963 37.2026C45.2823 36.7696 45.4948 36.3719 45.8068 36.0597C46.1189 35.7475 46.5165 35.5349 46.9494 35.4487C47.3823 35.3625 47.8311 35.4067 48.2389 35.5755C48.6467 35.7444 48.9953 36.0304 49.2406 36.3974C49.4858 36.7644 49.6167 37.1959 49.6167 37.6373C49.6156 38.2284 49.3801 38.795 48.962 39.2128C48.5439 39.6306 47.9772 39.8657 47.3861 39.8664V39.8689Z" fill="#251B6A"/>
<path d="M11.6139 45.2381C10.8319 45.2381 10.0675 45.47 9.41732 45.9044C8.76713 46.3389 8.26037 46.9564 7.96112 47.6788C7.66187 48.4013 7.58357 49.1962 7.73613 49.9632C7.88868 50.7301 8.26524 51.4346 8.81818 51.9875C9.37112 52.5405 10.0756 52.917 10.8426 53.0696C11.6095 53.2222 12.4045 53.1439 13.1269 52.8446C13.8494 52.5454 14.4669 52.0386 14.9013 51.3884C15.3358 50.7382 15.5676 49.9738 15.5676 49.1918C15.5666 48.1436 15.1497 47.1385 14.4085 46.3973C13.6672 45.656 12.6622 45.2391 11.6139 45.2381ZM11.6139 51.4229C11.1726 51.4229 10.7413 51.2921 10.3744 51.0469C10.0075 50.8018 9.72151 50.4533 9.55265 50.0456C9.38378 49.638 9.3396 49.1894 9.42568 48.7566C9.51177 48.3238 9.72426 47.9262 10.0363 47.6142C10.3483 47.3022 10.7458 47.0897 11.1786 47.0036C11.6114 46.9175 12.06 46.9617 12.4677 47.1306C12.8754 47.2994 13.2238 47.5854 13.469 47.9523C13.7141 48.3192 13.845 48.7506 13.845 49.1918C13.8445 49.7834 13.6092 50.3506 13.1909 50.7689C12.7726 51.1872 12.2055 51.4224 11.6139 51.4229Z" fill="#251B6A"/>
<path d="M23.5382 45.2381C22.7562 45.2381 21.9918 45.47 21.3416 45.9044C20.6914 46.3389 20.1847 46.9564 19.8854 47.6788C19.5862 48.4013 19.5079 49.1962 19.6604 49.9632C19.813 50.7301 20.1896 51.4346 20.7425 51.9875C21.2954 52.5405 21.9999 52.917 22.7669 53.0696C23.5338 53.2222 24.3288 53.1439 25.0512 52.8446C25.7737 52.5454 26.3912 52.0386 26.8256 51.3884C27.2601 50.7382 27.492 49.9738 27.492 49.1918C27.4908 48.1436 27.0739 47.1386 26.3326 46.3974C25.5914 45.6562 24.5865 45.2393 23.5382 45.2381ZM23.5382 51.4229C23.097 51.4229 22.6656 51.2921 22.2987 51.0469C21.9318 50.8018 21.6458 50.4533 21.477 50.0456C21.3081 49.638 21.2639 49.1894 21.35 48.7566C21.4361 48.3238 21.6486 47.9262 21.9606 47.6142C22.2726 47.3022 22.6702 47.0897 23.103 47.0036C23.5357 46.9175 23.9843 46.9617 24.392 47.1306C24.7997 47.2994 25.1481 47.5854 25.3933 47.9523C25.6385 48.3192 25.7693 48.7506 25.7693 49.1918C25.7687 49.7834 25.5334 50.3505 25.1151 50.7687C24.6968 51.187 24.1297 51.4223 23.5382 51.4229Z" fill="#251B6A"/>
<path d="M35.4618 45.2381C34.6798 45.2381 33.9154 45.47 33.2652 45.9044C32.615 46.3389 32.1083 46.9564 31.809 47.6788C31.5098 48.4013 31.4315 49.1962 31.584 49.9632C31.7366 50.7301 32.1131 51.4346 32.6661 51.9875C33.219 52.5405 33.9235 52.917 34.6905 53.0696C35.4574 53.2222 36.2524 53.1439 36.9748 52.8446C37.6973 52.5454 38.3148 52.0386 38.7492 51.3884C39.1837 50.7382 39.4155 49.9738 39.4155 49.1918C39.4144 48.1436 38.9974 47.1386 38.2562 46.3974C37.515 45.6562 36.51 45.2393 35.4618 45.2381ZM35.4618 51.4229C35.0205 51.4229 34.5892 51.2921 34.2223 51.0469C33.8554 50.8018 33.5694 50.4533 33.4005 50.0456C33.2317 49.638 33.1875 49.1894 33.2736 48.7566C33.3597 48.3238 33.5722 47.9262 33.8842 47.6142C34.1962 47.3022 34.5937 47.0897 35.0265 47.0036C35.4593 46.9175 35.9079 46.9617 36.3156 47.1306C36.7233 47.2994 37.0717 47.5854 37.3169 47.9523C37.562 48.3192 37.6929 48.7506 37.6929 49.1918C37.6924 49.7834 37.4571 50.3506 37.0388 50.7689C36.6205 51.1872 36.0534 51.4224 35.4618 51.4229Z" fill="#251B6A"/>
<path d="M47.3861 45.2381C46.6041 45.238 45.8397 45.4698 45.1894 45.9042C44.5392 46.3386 44.0323 46.956 43.733 47.6785C43.4337 48.4009 43.3553 49.1959 43.5078 49.9629C43.6603 50.7299 44.0368 51.4344 44.5897 51.9874C45.1427 52.5404 45.8471 52.917 46.6141 53.0696C47.3811 53.2222 48.1761 53.1439 48.8985 52.8447C49.621 52.5454 50.2385 52.0387 50.673 51.3885C51.1075 50.7383 51.3394 49.9738 51.3394 49.1918C51.3383 48.1437 50.9215 47.1387 50.1804 46.3975C49.4392 45.6562 48.4343 45.2393 47.3861 45.2381ZM47.3861 51.4229C46.9448 51.423 46.5134 51.2923 46.1465 51.0472C45.7795 50.8021 45.4935 50.4537 45.3245 50.046C45.1556 49.6383 45.1113 49.1897 45.1974 48.7569C45.2834 48.3241 45.4958 47.9265 45.8078 47.6144C46.1198 47.3023 46.5174 47.0898 46.9502 47.0037C47.383 46.9175 47.8316 46.9617 48.2393 47.1305C48.647 47.2994 48.9955 47.5854 49.2407 47.9523C49.4858 48.3192 49.6167 48.7506 49.6167 49.1918C49.6162 49.7833 49.381 50.3504 48.9628 50.7687C48.5447 51.187 47.9776 51.4223 47.3861 51.4229Z" fill="#251B6A"/>
</svg>
