<svg width="59" height="59" viewBox="0 0 59 59" fill="none" xmlns="http://www.w3.org/2000/svg">
<path d="M16.4314 3.29102C15.4203 3.29245 14.451 3.69482 13.7361 4.40989C13.0212 5.12495 12.6191 6.09434 12.6179 7.10547C12.6179 7.33391 12.7087 7.55299 12.8702 7.71452C13.0317 7.87605 13.2508 7.9668 13.4792 7.9668C13.7077 7.9668 13.9268 7.87605 14.0883 7.71452C14.2498 7.55299 14.3406 7.33391 14.3406 7.10547C14.3411 6.55085 14.5616 6.0191 14.9538 5.62692C15.346 5.23475 15.8778 5.01419 16.4324 5.01367H22.0379C22.2663 5.01367 22.4854 4.92293 22.6469 4.76139C22.8085 4.59986 22.8992 4.38078 22.8992 4.15234C22.8992 3.92391 22.8085 3.70482 22.6469 3.54329C22.4854 3.38176 22.2663 3.29102 22.0379 3.29102H16.4314Z" fill="white"/>
<path d="M27.198 3.29102H25.6722C25.4438 3.29102 25.2247 3.38176 25.0632 3.54329C24.9017 3.70482 24.8109 3.92391 24.8109 4.15234C24.8109 4.38078 24.9017 4.59986 25.0632 4.76139C25.2247 4.92293 25.4438 5.01367 25.6722 5.01367H27.198C27.4265 5.01367 27.6455 4.92293 27.8071 4.76139C27.9686 4.59986 28.0594 4.38078 28.0594 4.15234C28.0594 3.92391 27.9686 3.70482 27.8071 3.54329C27.6455 3.38176 27.4265 3.29102 27.198 3.29102Z" fill="white"/>
<path d="M22.4686 2.06055H27.1981C27.4265 2.06055 27.6456 1.9698 27.8071 1.80827C27.9686 1.64674 28.0594 1.42766 28.0594 1.19922C28.0594 0.97078 27.9686 0.751698 27.8071 0.590168C27.6456 0.428637 27.4265 0.337891 27.1981 0.337891H22.4686C22.2402 0.337891 22.0211 0.428637 21.8596 0.590168C21.698 0.751698 21.6073 0.97078 21.6073 1.19922C21.6073 1.42766 21.698 1.64674 21.8596 1.80827C22.0211 1.9698 22.2402 2.06055 22.4686 2.06055Z" fill="white"/>
<path d="M10.5251 7.9668C10.6384 7.96699 10.7505 7.94485 10.8551 7.90165C10.9598 7.85844 11.0549 7.79502 11.135 7.71501C11.2151 7.635 11.2786 7.53998 11.3219 7.43539C11.3652 7.33079 11.3875 7.21868 11.3875 7.10547C11.3889 5.76808 11.9207 4.48587 12.8663 3.5401C13.8119 2.59433 15.094 2.06224 16.4314 2.06055H18.7053C18.9337 2.06055 19.1528 1.9698 19.3143 1.80827C19.4759 1.64674 19.5666 1.42766 19.5666 1.19922C19.5666 0.97078 19.4759 0.751698 19.3143 0.590168C19.1528 0.428637 18.9337 0.337891 18.7053 0.337891H16.4314C14.6373 0.340105 12.9173 1.05386 11.6488 2.32257C10.3803 3.59129 9.66675 5.31136 9.6648 7.10547C9.66473 7.21851 9.68693 7.33047 9.73013 7.43493C9.77334 7.5394 9.83669 7.63433 9.91658 7.71431C9.99647 7.7943 10.0913 7.85776 10.1957 7.90108C10.3002 7.9444 10.4121 7.96673 10.5251 7.9668Z" fill="white"/>
<path d="M38.8383 3.29102C37.827 3.29219 36.8574 3.69444 36.1423 4.40954C35.4272 5.12463 35.025 6.09417 35.0238 7.10547C35.0238 7.33391 35.1146 7.55299 35.2761 7.71452C35.4376 7.87605 35.6567 7.9668 35.8851 7.9668C36.1136 7.9668 36.3327 7.87605 36.4942 7.71452C36.6557 7.55299 36.7465 7.33391 36.7465 7.10547C36.747 6.55085 36.9675 6.0191 37.3597 5.62692C37.7519 5.23475 38.2836 5.01419 38.8383 5.01367H41.4355C41.664 5.01367 41.8831 4.92293 42.0446 4.76139C42.2061 4.59986 42.2969 4.38078 42.2969 4.15234C42.2969 3.92391 42.2061 3.70482 42.0446 3.54329C41.8831 3.38176 41.664 3.29102 41.4355 3.29102H38.8383Z" fill="white"/>
<path d="M44.2041 4.15234C44.204 4.26547 44.2263 4.37751 44.2695 4.48204C44.3128 4.58657 44.3762 4.68155 44.4562 4.76154C44.5362 4.84153 44.6312 4.90498 44.7357 4.94824C44.8403 4.9915 44.9523 5.01374 45.0654 5.01367H49.6049C49.8333 5.01367 50.0524 4.92293 50.2139 4.7614C50.3754 4.59987 50.4662 4.38078 50.4662 4.15234C50.4662 3.92391 50.3754 3.70482 50.2139 3.54329C50.0524 3.38176 49.8333 3.29102 49.6049 3.29102H45.0654C44.9523 3.29095 44.8403 3.31319 44.7357 3.35645C44.6312 3.39971 44.5362 3.46315 44.4562 3.54315C44.3762 3.62314 44.3128 3.71812 44.2695 3.82265C44.2263 3.92718 44.204 4.03921 44.2041 4.15234Z" fill="white"/>
<path d="M48.4182 2.06055H49.6049C49.8333 2.06055 50.0524 1.9698 50.2139 1.80827C50.3754 1.64674 50.4662 1.42766 50.4662 1.19922C50.4662 0.97078 50.3754 0.751698 50.2139 0.590168C50.0524 0.428637 49.8333 0.337891 49.6049 0.337891H48.4182C48.1898 0.337891 47.9707 0.428637 47.8092 0.590168C47.6476 0.751698 47.5569 0.97078 47.5569 1.19922C47.5569 1.42766 47.6476 1.64674 47.8092 1.80827C47.9707 1.9698 48.1898 2.06055 48.4182 2.06055Z" fill="white"/>
<path d="M32.932 7.9668C33.1604 7.9668 33.3795 7.87605 33.5411 7.71452C33.7026 7.55299 33.7933 7.33391 33.7933 7.10547C33.7948 5.76791 34.3267 4.48555 35.2725 3.53975C36.2183 2.59396 37.5007 2.06198 38.8383 2.06055H43.6809C43.9093 2.06055 44.1284 1.9698 44.2899 1.80827C44.4515 1.64674 44.5422 1.42766 44.5422 1.19922C44.5422 0.97078 44.4515 0.751698 44.2899 0.590168C44.1284 0.428637 43.9093 0.337891 43.6809 0.337891H38.8383C37.044 0.339845 35.3238 1.05348 34.055 2.32223C32.7863 3.59097 32.0726 5.3112 32.0707 7.10547C32.0706 7.2186 32.0928 7.33063 32.1361 7.43516C32.1794 7.53969 32.2428 7.63467 32.3228 7.71466C32.4028 7.79466 32.4978 7.8581 32.6023 7.90136C32.7068 7.94463 32.8189 7.96686 32.932 7.9668Z" fill="white"/>
<path d="M51.8945 28.8774C51.6661 28.8774 51.447 28.9681 51.2855 29.1297C51.124 29.2912 51.0332 29.5103 51.0332 29.7387V32.6918C51.0332 32.9203 51.124 33.1394 51.2855 33.3009C51.447 33.4624 51.6661 33.5532 51.8945 33.5532C52.123 33.5532 52.3421 33.4624 52.5036 33.3009C52.6651 33.1394 52.7559 32.9203 52.7559 32.6918V29.7387C52.7559 29.5103 52.6651 29.2912 52.5036 29.1297C52.3421 28.9681 52.123 28.8774 51.8945 28.8774Z" fill="white"/>
<path d="M57.8008 53.9863H55.709V23.4215L57.9036 23.1577C58.1263 23.1256 58.3276 23.0077 58.4645 22.8291C58.6014 22.6506 58.663 22.4256 58.6361 22.2022C58.6092 21.9789 58.496 21.7749 58.3207 21.6339C58.1454 21.4929 57.9218 21.4261 57.6979 21.4478L40.1549 23.5553L39.6824 13.6447C39.834 13.577 39.9627 13.4669 40.0531 13.3277C40.1435 13.1885 40.1917 13.0261 40.1918 12.8601V9.90698C40.1917 9.67858 40.1009 9.45958 39.9394 9.29808C39.7779 9.13657 39.5589 9.04578 39.3305 9.04565H29.4867C29.2583 9.04565 29.0392 9.1364 28.8777 9.29793C28.7161 9.45946 28.6254 9.67854 28.6254 9.90698V12.8601C28.6251 13.0268 28.6733 13.19 28.7641 13.3298C28.8549 13.4696 28.9844 13.58 29.1368 13.6476L28.6003 24.9463L17.874 26.2338L17.2775 13.6437C17.4288 13.576 17.5573 13.466 17.6475 13.327C17.7377 13.188 17.7858 13.0258 17.7859 12.8601V9.90698C17.7859 9.67854 17.6952 9.45946 17.5337 9.29793C17.3721 9.1364 17.153 9.04565 16.9246 9.04565H7.08086C6.85242 9.04565 6.63334 9.1364 6.47181 9.29793C6.31028 9.45946 6.21953 9.67854 6.21953 9.90698V12.8601C6.21953 13.0271 6.26811 13.1904 6.35935 13.3303C6.45059 13.4701 6.58055 13.5804 6.73337 13.6476L5.16182 46.6035H4.50672C4.28544 46.6035 4.07264 46.6887 3.91246 46.8413C3.75228 46.994 3.657 47.2025 3.64638 47.4235L3.33138 53.9863H1.19922C1.08609 53.9862 0.974057 54.0085 0.869526 54.0517C0.764996 54.095 0.670018 54.1585 0.590024 54.2384C0.510029 54.3184 0.446587 54.4134 0.403324 54.5179C0.360061 54.6225 0.337826 54.7345 0.337891 54.8476V57.8008C0.337826 57.9139 0.360061 58.0259 0.403324 58.1305C0.446587 58.235 0.510029 58.33 0.590024 58.41C0.670018 58.49 0.764996 58.5534 0.869526 58.5967C0.974057 58.6399 1.08609 58.6622 1.19922 58.6621H57.8008C57.9139 58.6622 58.0259 58.6399 58.1305 58.5967C58.235 58.5534 58.33 58.49 58.41 58.41C58.49 58.33 58.5534 58.235 58.5967 58.1305C58.6399 58.0259 58.6622 57.9139 58.6621 57.8008V54.8476C58.6622 54.7345 58.6399 54.6225 58.5967 54.5179C58.5534 54.4134 58.49 54.3184 58.41 54.2384C58.33 54.1585 58.235 54.095 58.1305 54.0517C58.0259 54.0085 57.9139 53.9862 57.8008 53.9863ZM49.1535 53.9863V45.0039C49.1535 44.7755 49.0628 44.5564 48.9013 44.3948C48.7397 44.2333 48.5206 44.1426 48.2922 44.1426H42.386C42.2728 44.1425 42.1608 44.1647 42.0563 44.208C41.9517 44.2513 41.8568 44.3147 41.7768 44.3947C41.6968 44.4747 41.6333 44.5697 41.5901 44.6742C41.5468 44.7787 41.5246 44.8908 41.5246 45.0039V53.9863H40.1957V45.0039C40.1957 44.7755 40.105 44.5564 39.9435 44.3948C39.7819 44.2333 39.5628 44.1426 39.3344 44.1426H33.4282C33.315 44.1425 33.203 44.1647 33.0985 44.208C32.9939 44.2513 32.8989 44.3147 32.819 44.3947C32.739 44.4747 32.6755 44.5697 32.6323 44.6742C32.589 44.7787 32.5668 44.8908 32.5668 45.0039V53.9863H12.8641V28.5712L53.9863 23.6292V53.9863H49.1535ZM47.4309 53.9863H43.2473V45.8652H47.4309V53.9863ZM38.4731 53.9863H34.2895V45.8652H38.4731V53.9863ZM30.352 10.7683H38.4731V11.9988H30.352V10.7683ZM30.8619 13.7214H37.9617L38.4401 23.7621L30.3367 24.7361L30.8619 13.7214ZM7.94514 10.7683H16.0633V11.9988H7.94219L7.94514 10.7683ZM8.45751 13.7214H15.5568L16.1588 26.4396L8.94576 27.3073C8.72828 27.3339 8.52913 27.4425 8.38885 27.6108C8.24857 27.7791 8.17771 27.9945 8.1907 28.2133C8.20368 28.432 8.29953 28.6375 8.45874 28.7881C8.61794 28.9386 8.82854 29.0228 9.04764 29.0235C9.08234 29.0235 9.11701 29.0216 9.15149 29.0176L11.1414 28.7779V46.6035H6.88645L8.45751 13.7214ZM5.32769 48.3262H11.1414V53.9863H5.056L5.32769 48.3262ZM56.9395 56.9394H2.06055V55.709H56.9395V56.9394Z" fill="white"/>
<path d="M27.7517 41.2717H17.908C17.6795 41.2717 17.4604 41.3624 17.2989 41.5239C17.1374 41.6855 17.0466 41.9046 17.0466 42.133C17.0466 42.3614 17.1374 42.5805 17.2989 42.742C17.4604 42.9036 17.6795 42.9943 17.908 42.9943H27.7517C27.9802 42.9943 28.1992 42.9036 28.3608 42.742C28.5223 42.5805 28.613 42.3614 28.613 42.133C28.613 41.9046 28.5223 41.6855 28.3608 41.5239C28.1992 41.3624 27.9802 41.2717 27.7517 41.2717Z" fill="white"/>
<path d="M27.7517 35.3654H17.908C17.6795 35.3654 17.4604 35.4562 17.2989 35.6177C17.1374 35.7792 17.0466 35.9983 17.0466 36.2267C17.0466 36.4552 17.1374 36.6743 17.2989 36.8358C17.4604 36.9973 17.6795 37.0881 17.908 37.0881H27.7517C27.9802 37.0881 28.1992 36.9973 28.3608 36.8358C28.5223 36.6743 28.613 36.4552 28.613 36.2267C28.613 35.9983 28.5223 35.7792 28.3608 35.6177C28.1992 35.4562 27.9802 35.3654 27.7517 35.3654Z" fill="white"/>
<path d="M27.7517 38.3185H17.908C17.6795 38.3185 17.4604 38.4093 17.2989 38.5708C17.1374 38.7324 17.0466 38.9514 17.0466 39.1799C17.0466 39.4083 17.1374 39.6274 17.2989 39.7889C17.4604 39.9505 17.6795 40.0412 17.908 40.0412H27.7517C27.9802 40.0412 28.1992 39.9505 28.3608 39.7889C28.5223 39.6274 28.613 39.4083 28.613 39.1799C28.613 38.9514 28.5223 38.7324 28.3608 38.5708C28.1992 38.4093 27.9802 38.3185 27.7517 38.3185Z" fill="white"/>
<path d="M37.8563 36.842H34.9032C34.7901 36.8419 34.678 36.8641 34.5735 36.9074C34.469 36.9507 34.374 37.0141 34.294 37.0941C34.214 37.1741 34.1506 37.2691 34.1073 37.3736C34.064 37.4781 34.0418 37.5902 34.0419 37.7033V40.6564C34.0418 40.7696 34.064 40.8816 34.1073 40.9861C34.1506 41.0907 34.214 41.1856 34.294 41.2656C34.374 41.3456 34.469 41.4091 34.5735 41.4523C34.678 41.4956 34.7901 41.5178 34.9032 41.5178H37.8563C38.0848 41.5178 38.3038 41.427 38.4654 41.2655C38.6269 41.104 38.7176 40.8849 38.7176 40.6564V37.7033C38.7176 37.4749 38.6269 37.2558 38.4654 37.0943C38.3038 36.9327 38.0848 36.842 37.8563 36.842ZM36.995 39.7951H35.7645V38.5646H36.995V39.7951Z" fill="white"/>
<path d="M46.8157 36.842H43.8625C43.7494 36.8419 43.6374 36.8641 43.5329 36.9074C43.4283 36.9507 43.3333 37.0141 43.2534 37.0941C43.1734 37.1741 43.1099 37.2691 43.0667 37.3736C43.0234 37.4781 43.0012 37.5902 43.0012 37.7033V40.6564C43.0012 40.7696 43.0234 40.8816 43.0667 40.9861C43.1099 41.0907 43.1734 41.1856 43.2534 41.2656C43.3333 41.3456 43.4283 41.4091 43.5329 41.4523C43.6374 41.4956 43.7494 41.5178 43.8625 41.5178H46.8157C47.0441 41.5178 47.2632 41.427 47.4247 41.2655C47.5863 41.104 47.677 40.8849 47.677 40.6564V37.7033C47.677 37.4749 47.5863 37.2558 47.4247 37.0943C47.2632 36.9327 47.0441 36.842 46.8157 36.842ZM45.9543 39.7951H44.7239V38.5646H45.9543V39.7951Z" fill="white"/>
</svg>
