<svg width="11" height="15" viewBox="0 0 11 15" fill="none" xmlns="http://www.w3.org/2000/svg">
<path d="M5.50001 0C2.74306 0 0.5 2.24306 0.5 5.00001C0.5 5.82765 0.706924 6.64825 1.10029 7.3761L5.22658 14.8389C5.28151 14.9384 5.38619 15 5.50001 15C5.61383 15 5.7185 14.9384 5.77344 14.8389L9.90125 7.37364C10.2931 6.64825 10.5 5.82762 10.5 4.99998C10.5 2.24306 8.25696 0 5.50001 0ZM9.35284 7.07367L5.50001 14.0418L1.6487 7.07643C1.30599 6.44227 1.12502 5.7242 1.12502 5.00001C1.12502 2.58759 3.08762 0.62502 5.50001 0.62502C7.9124 0.62502 9.875 2.58762 9.875 5.00001C9.875 5.72417 9.69403 6.44227 9.35284 7.07367Z" fill="white"/>
<path d="M5.49999 2.49998C4.12151 2.49998 3 3.6215 3 4.99997C3 6.37848 4.12151 7.49999 5.49999 7.49999C6.87846 7.49999 7.99998 6.37848 7.99998 5C7.99998 3.62153 6.87846 2.49998 5.49999 2.49998ZM5.49999 6.875C4.46604 6.875 3.62499 6.03395 3.62499 5C3.62499 3.96606 4.46604 3.125 5.49999 3.125C6.53393 3.125 7.37499 3.96606 7.37499 5C7.37499 6.03392 6.53393 6.875 5.49999 6.875Z" fill="white"/>
</svg>
