<svg width="168" height="31" viewBox="0 0 168 31" fill="none" xmlns="http://www.w3.org/2000/svg">
<path fill-rule="evenodd" clip-rule="evenodd" d="M40.7997 7.67176H41.5617V4.16303H42.8885V3.38993H40.7997V7.67176ZM48.3714 7.67176H49.1707V6.04985H49.5543C50.7799 6.04985 51.0463 5.27674 51.0463 4.73611C51.0463 4.33063 50.8811 3.38993 49.5543 3.38993H48.3714V7.67176ZM49.1707 4.16303H49.6343C49.8314 4.16303 50.3003 4.19548 50.3003 4.73611C50.3003 5.27674 49.8314 5.27674 49.6343 5.27674H49.1707V4.16303ZM60.2112 3.38993H59.38L58.3836 5.68222L57.2859 3.38993H56.3214L57.952 6.59048L57.4511 7.67176H58.3143L60.2112 3.38993ZM65.7261 7.67176H66.5201V4.16303H68.0493V7.67176H68.8486V3.38993H65.7261V7.67176ZM74.6938 7.67176H75.4931V4.16303H77.0171V7.67176H77.795V3.38993H74.6726V7.67176H74.6938ZM83.2993 7.67176H84.1625L84.5941 6.59048H86.1553L86.5869 7.67176H87.4501L85.6918 3.38993H85.0577L83.2993 7.67176ZM84.8978 5.81738L85.3934 4.56851L85.8623 5.81738H84.8978ZM97.8516 7.67176H98.6188V5.81738L99.9451 7.67176H100.877L99.2796 5.50922L100.877 3.38452H99.9451L98.6029 5.2443V3.38993H97.8348V7.67176H97.8516ZM108.087 3.34668C107.796 3.3431 107.508 3.39804 107.238 3.50831C106.968 3.61858 106.723 3.78201 106.516 3.98912C106.309 4.19624 106.144 4.44295 106.031 4.715C105.918 4.98705 105.861 5.27904 105.86 5.5741C105.85 6.0269 105.974 6.47229 106.215 6.85329C106.457 7.23429 106.805 7.53357 107.215 7.71285C107.625 7.89214 108.078 7.94326 108.517 7.85968C108.955 7.77611 109.36 7.56165 109.677 7.24372C109.995 6.92579 110.213 6.51886 110.301 6.07499C110.39 5.63112 110.346 5.17049 110.175 4.75203C110.005 4.33357 109.714 3.97632 109.343 3.72596C108.97 3.47561 108.534 3.34355 108.087 3.34668ZM108.087 7.05544C107.897 7.05331 107.71 7.01332 107.536 6.93772C107.361 6.86213 107.204 6.75243 107.071 6.61487C106.939 6.47731 106.833 6.31459 106.763 6.13602C106.692 5.95745 106.657 5.7665 106.659 5.5741C106.659 5.18552 106.812 4.81286 107.082 4.5381C107.353 4.26333 107.72 4.10897 108.103 4.10897C108.486 4.10897 108.854 4.26333 109.124 4.5381C109.395 4.81286 109.547 5.18552 109.547 5.5741C109.548 5.76898 109.51 5.96204 109.435 6.14172C109.361 6.32139 109.251 6.48397 109.114 6.61975C108.976 6.75553 108.813 6.8617 108.633 6.93192C108.454 7.00214 108.263 7.03495 108.071 7.0284L108.087 7.05544ZM115.957 7.69879H116.756V4.46579L117.887 7.67176H118.552L119.618 4.46579V7.67176H120.422V3.38993H119.357L118.195 6.69321L117.002 3.38993H115.936V7.67176L115.957 7.69879ZM126.289 7.69879H127.088V4.16303H128.618V7.67176H129.411V3.38993H126.284V7.67176L126.289 7.69879ZM134.895 7.69879H135.758L136.221 6.61752H137.751L138.182 7.69879H139.045L137.287 3.41696H136.653L134.895 7.69879ZM136.493 5.84441L136.994 4.59555L137.458 5.84441H136.493ZM144.566 7.69879H145.365V5.88226H146.894V7.67176H147.688V3.38993H146.894V5.10914H145.365V3.38993H144.566V7.67176V7.69879ZM153.539 3.41696V7.69879H154.301L156.192 4.69826V7.69879H156.991V3.38993H156.192L154.301 6.42289V3.38993L153.539 3.41696ZM162.837 3.41696V7.69879H163.583L165.474 4.69826V7.69879H166.273V3.38993H165.474L163.583 6.42289V3.38993L162.837 3.41696ZM163.535 2.37354C163.576 2.61367 163.705 2.82936 163.895 2.97836C164.086 3.12736 164.324 3.19894 164.563 3.17908C164.802 3.1943 165.039 3.12109 165.229 2.97298C165.419 2.82488 165.55 2.61192 165.597 2.37354H164.931C164.916 2.46086 164.871 2.53988 164.803 2.59566C164.736 2.65144 164.65 2.68013 164.563 2.67629C164.476 2.68387 164.389 2.65643 164.321 2.59984C164.254 2.54326 164.21 2.46204 164.2 2.37354H163.535Z" fill="white" fill-opacity="0.3"/>
<path fill-rule="evenodd" clip-rule="evenodd" d="M38.6738 9.15308H168V10.0613H38.6738V9.15308Z" fill="white" fill-opacity="0.3"/>
<path fill-rule="evenodd" clip-rule="evenodd" d="M58.1705 14.4782C60.3658 14.4782 61.7245 16.2623 61.7245 18.2627C61.7245 19.219 61.3501 20.1363 60.6836 20.8125C60.0171 21.4888 59.1131 21.8687 58.1705 21.8687C57.2279 21.8687 56.3239 21.4888 55.6574 20.8125C54.9908 20.1363 54.6164 19.219 54.6164 18.2627C54.6164 16.2352 55.9805 14.4782 58.1705 14.4782ZM95.9439 12.0507L93.0183 20.0035L90.1943 12.0454H86.8534L87.6526 14.0349C87.0912 13.2856 86.3656 12.679 85.5334 12.2633C84.701 11.8476 83.7848 11.6342 82.857 11.6398C81.8926 11.6398 79.9637 11.9426 78.9034 13.6619H78.8607V12.0399H76.1965V21.7714H76.1273L71.6407 12.0399H68.9765L64.49 21.7714H63.6907C64.3349 20.7208 64.6695 19.5053 64.6552 18.2681C64.6501 16.7565 64.1323 15.2928 63.1887 14.1231C62.2452 12.9534 60.9335 12.1489 59.4742 11.845C58.0148 11.5411 56.4968 11.7563 55.1755 12.4545C53.8541 13.1526 52.81 14.2911 52.2186 15.6784C51.7618 14.4586 50.9391 13.4151 49.8663 12.6953C48.7937 11.9756 47.5252 11.6159 46.2401 11.6669C45.3796 11.6327 44.5211 11.7752 43.7162 12.0859C42.9113 12.3965 42.1765 12.869 41.556 13.4748C40.9355 14.0807 40.442 14.8076 40.1051 15.6117C39.7682 16.4158 39.5949 17.2807 39.5956 18.1545C39.5819 19.0526 39.7486 19.944 40.0855 20.7745C40.4223 21.6051 40.9223 22.3574 41.5549 22.9855C42.1875 23.6138 42.9395 24.1047 43.7651 24.4286C44.5908 24.7525 45.4728 24.9023 46.3574 24.8692C47.62 24.906 48.8626 24.5433 49.9128 23.8312C50.9631 23.1192 51.7689 22.0932 52.2186 20.8956C52.6552 21.911 53.336 22.7991 54.1985 23.4785C55.061 24.1579 56.0777 24.6069 57.1555 24.7845C58.2333 24.9619 59.3378 24.8623 60.3678 24.4946C61.3979 24.1268 62.3205 23.5029 63.0513 22.6797V27.5724H65.9393V24.4367H76.1965V27.5724H79.1165V23.1067H79.1858C79.6203 23.6702 80.1784 24.123 80.8158 24.4289C81.4531 24.7349 82.1521 24.8857 82.857 24.8692C86.7415 24.8692 88.9847 21.6578 88.9847 18.2518C88.9813 17.8904 88.9582 17.5295 88.9155 17.1706L91.3773 23.3014L89.5176 27.5724H92.7146L98.4695 13.9052L101.357 17.9491L96.8763 24.4367H100.361L104.315 18.4897V24.4367H107.272V18.4897L111.225 24.4367H114.679L110.229 17.9491L114.417 12.0507H110.959L107.272 17.7491V12.0507H104.315V17.7491L100.627 12.0507H95.9439ZM82.5213 14.4782C85.0151 14.4782 86.0434 16.5704 86.0434 18.2194C86.0637 18.7122 85.9849 19.2042 85.8117 19.6652C85.6385 20.1261 85.3746 20.5465 85.0361 20.9006C84.6976 21.2546 84.2915 21.5351 83.8426 21.7248C83.3938 21.9145 82.9117 22.0094 82.4255 22.0039C80.4326 22.0039 78.9354 20.5874 78.9354 18.2194C78.9354 16.0569 80.3953 14.435 82.5213 14.435V14.4782ZM134.74 20.4252C134.447 20.9337 134.023 21.3527 133.515 21.6381C133.007 21.9235 132.433 22.0648 131.852 22.0471C131.36 22.0632 130.87 21.976 130.412 21.7909C129.955 21.6059 129.54 21.327 129.194 20.9717C128.848 20.6164 128.578 20.1924 128.401 19.7262C128.223 19.26 128.143 18.7618 128.164 18.2627C128.14 17.7648 128.219 17.2673 128.396 16.8022C128.572 16.337 128.843 15.9146 129.19 15.5622C129.537 15.2097 129.955 14.9349 130.413 14.7557C130.871 14.5765 131.361 14.4967 131.852 14.5214C132.442 14.4906 133.029 14.6333 133.541 14.9325C134.054 15.2318 134.47 15.6747 134.74 16.2082H138.028C137.887 15.6855 137.675 15.1852 137.399 14.7215H139.423V24.4529H142.349V14.6782H145.205V24.4529H150.422C153.176 24.4529 154.572 22.6688 154.572 20.7496C155.134 22.166 156.165 23.3398 157.487 24.0693C158.809 24.7989 160.34 25.0388 161.818 24.7479C163.295 24.4568 164.626 23.6532 165.584 22.4747C166.54 21.2963 167.063 19.8166 167.062 18.2897C167.087 17.4108 166.938 16.5359 166.623 15.7166C166.31 14.8973 165.837 14.1503 165.233 13.5197C164.629 12.8891 163.906 12.388 163.107 12.0456C162.309 11.7034 161.452 11.5271 160.586 11.5271C159.719 11.5271 158.861 11.7034 158.063 12.0456C157.265 12.388 156.542 12.8891 155.939 13.5197C155.335 14.1503 154.861 14.8973 154.547 15.7166C154.233 16.5359 154.084 17.4108 154.109 18.2897C154.098 18.628 154.119 18.9665 154.173 19.3007C153.746 18.5981 153.069 18.0904 152.281 17.8842C152.801 17.6769 153.249 17.3216 153.573 16.8611C153.897 16.4006 154.084 15.8546 154.109 15.2892C154.109 13.77 153.081 12.0454 150.587 12.0454H136.504V13.5159C135.657 12.7065 134.618 12.134 133.489 11.8545C132.36 11.5749 131.177 11.5978 130.059 11.9211C128.941 12.2442 127.925 12.8566 127.11 13.6981C126.294 14.5397 125.709 15.5816 125.41 16.7219C125.15 15.2732 124.387 13.9668 123.261 13.0387C122.134 12.1107 120.717 11.6222 119.266 11.6615C114.881 11.6615 112.787 15.5054 112.787 18.3708C112.798 19.8755 113.32 21.3304 114.264 22.4911C115.208 23.6516 116.517 24.4472 117.971 24.744C119.425 25.0408 120.935 24.8208 122.248 24.121C123.561 23.4211 124.596 22.2841 125.181 20.9009H121.856C121.513 21.2825 121.091 21.583 120.62 21.7811C120.15 21.9791 119.642 22.0699 119.133 22.0471C118.398 22.075 117.677 21.845 117.089 21.396C116.502 20.9469 116.085 20.3062 115.91 19.5818H125.41C125.943 22.2849 128.074 24.8746 131.99 24.8746C133.339 24.9083 134.661 24.4909 135.753 23.6869C136.845 22.8828 137.646 21.7367 138.033 20.4252H134.74ZM49.0641 20.4252C48.7707 20.9337 48.3476 21.3527 47.8394 21.6381C47.3313 21.9235 46.7567 22.0648 46.1762 22.0471C43.9169 22.0471 42.5209 20.3603 42.5209 18.2627C42.496 17.7674 42.5732 17.2724 42.7476 16.8092C42.9221 16.3461 43.1899 15.925 43.5339 15.5728C43.8781 15.2206 44.2908 14.9453 44.7457 14.7643C45.2007 14.5831 45.6879 14.5005 46.1762 14.5214C46.7679 14.4822 47.3578 14.6214 47.8717 14.9215C48.3856 15.2216 48.8005 15.6694 49.0641 16.2082H52.0215C51.795 16.878 51.6815 17.5817 51.6858 18.2897C51.6754 19.0101 51.7871 19.727 52.0162 20.409L49.0641 20.4252ZM67.7989 21.8092L70.2926 16.0785L72.7864 21.8092H67.7989ZM115.872 16.9435C116.103 16.2197 116.557 15.5901 117.167 15.1473C117.777 14.7046 118.511 14.472 119.261 14.4837C119.99 14.4618 120.705 14.6938 121.287 15.1413C121.869 15.5889 122.282 16.2248 122.458 16.9435H115.872ZM148.13 19.398H150.219C151.551 19.398 151.684 20.3117 151.684 20.6468C151.684 21.1496 151.418 21.8958 150.219 21.8958H148.13V19.398ZM148.13 14.5971H150.054C150.207 14.5774 150.363 14.5918 150.51 14.6393C150.658 14.6868 150.793 14.7663 150.908 14.8724C151.022 14.9783 151.111 15.1082 151.171 15.253C151.231 15.3978 151.259 15.554 151.253 15.7109C151.251 15.8652 151.218 16.0176 151.156 16.1584C151.094 16.2993 151.003 16.4257 150.891 16.5297C150.778 16.6336 150.647 16.7129 150.502 16.7628C150.358 16.8126 150.205 16.8318 150.054 16.8192H148.13V14.5971ZM160.588 14.462C162.778 14.462 164.143 16.2461 164.143 18.2464C164.161 18.7321 164.083 19.2165 163.912 19.6708C163.742 20.125 163.483 20.5396 163.15 20.8899C162.818 21.2402 162.421 21.5188 161.979 21.7092C161.539 21.8995 161.064 21.9976 160.586 21.9976C160.107 21.9976 159.633 21.8995 159.191 21.7092C158.751 21.5188 158.352 21.2402 158.021 20.8899C157.689 20.5396 157.429 20.125 157.259 19.6708C157.088 19.2165 157.01 18.7321 157.029 18.2464C157.029 16.2191 158.393 14.462 160.588 14.462Z" fill="white" fill-opacity="0.3"/>
<path fill-rule="evenodd" clip-rule="evenodd" d="M10.0706 1.01111C18.6495 -2.29758 26.9725 3.17365 28.7734 7.96908C23.8926 1.74096 10.8699 3.82782 6.27148 10.9155C6.60185 6.17417 8.24833 2.39514 10.0494 1.01111H10.0706Z" fill="white" fill-opacity="0.3"/>
<path fill-rule="evenodd" clip-rule="evenodd" d="M5.82918 3.35742C2.36037 11.9589 2.33374 17.7708 4.44379 26.3452C2.9233 24.8074 1.74271 22.9588 0.980478 20.9224C0.218249 18.886 -0.108192 16.7083 0.022842 14.5341C0.153876 12.3598 0.739388 10.2387 1.74048 8.31171C2.74158 6.3847 4.13534 4.69588 5.82918 3.35742ZM5.64801 27.4913C8.41648 29.8217 11.92 31.0616 15.5163 30.9839C25.4804 31.4812 33.1906 20.1712 30.0789 11.3047C22.0116 0.881319 5.86115 9.55848 5.64801 27.4913Z" fill="white" fill-opacity="0.3"/>
</svg>
