<svg width="180" height="33" viewBox="0 0 180 33" fill="none" xmlns="http://www.w3.org/2000/svg">
<g clip-path="url(#clip0)">
<path fill-rule="evenodd" clip-rule="evenodd" d="M43.7141 8.16649H44.5305V4.4314H45.952V3.60841H43.7141V8.16649ZM51.8266 8.16649H52.683V6.43994H53.094C54.4071 6.43994 54.6926 5.61696 54.6926 5.04144C54.6926 4.60981 54.5156 3.60841 53.094 3.60841H51.8266V8.16649ZM52.683 4.4314H53.1797C53.3909 4.4314 53.8933 4.46593 53.8933 5.04144C53.8933 5.61696 53.3909 5.61696 53.1797 5.61696H52.683V4.4314ZM64.5121 3.60841H63.6215L62.5539 6.04859L61.3778 3.60841H60.3445L62.0915 7.01546L61.5548 8.16649H62.4797L64.5121 3.60841ZM70.4209 8.16649H71.2716V4.4314H72.9101V8.16649H73.7664V3.60841H70.4209V8.16649ZM80.0292 8.16649H80.8856V4.4314H82.5184V8.16649H83.3519V3.60841H80.0064V8.16649H80.0292ZM89.2493 8.16649H90.1742L90.6366 7.01546H92.3094L92.7718 8.16649H93.6967L91.8127 3.60841H91.1333L89.2493 8.16649ZM90.962 6.19247L91.493 4.86303L91.9954 6.19247H90.962ZM104.841 8.16649H105.663V6.19247L107.084 8.16649H108.083L106.371 5.86443L108.083 3.60266H107.084L105.646 5.58243V3.60841H104.824V8.16649H104.841ZM115.808 3.56237C115.496 3.55857 115.187 3.61705 114.898 3.73443C114.609 3.85182 114.346 4.02578 114.124 4.24626C113.902 4.46674 113.726 4.72937 113.605 5.01898C113.485 5.30858 113.422 5.6194 113.421 5.93349C113.411 6.4155 113.544 6.88963 113.802 7.29521C114.061 7.70079 114.434 8.01938 114.873 8.21023C115.312 8.40108 115.798 8.4555 116.268 8.36654C116.738 8.27757 117.171 8.04927 117.512 7.71083C117.852 7.37239 118.085 6.93921 118.18 6.4667C118.275 5.99419 118.228 5.50384 118.045 5.05839C117.862 4.61293 117.551 4.23263 117.153 3.96613C116.754 3.69962 116.286 3.55904 115.808 3.56237ZM115.808 7.5104C115.605 7.50814 115.404 7.46557 115.217 7.3851C115.03 7.30463 114.861 7.18784 114.719 7.04141C114.577 6.89498 114.465 6.72177 114.389 6.53167C114.313 6.34157 114.275 6.13831 114.278 5.93349C114.278 5.51985 114.441 5.12314 114.731 4.83065C115.021 4.53816 115.415 4.37385 115.825 4.37385C116.235 4.37385 116.629 4.53816 116.919 4.83065C117.209 5.12314 117.372 5.51985 117.372 5.93349C117.373 6.14095 117.332 6.34647 117.253 6.53773C117.173 6.72899 117.056 6.90207 116.908 7.0466C116.76 7.19114 116.585 7.30416 116.393 7.37891C116.201 7.45366 115.996 7.48859 115.791 7.48162L115.808 7.5104ZM124.24 8.19526H125.096V4.75368L126.307 8.16649H127.02L128.162 4.75368V8.16649H129.024V3.60841H127.882L126.638 7.1248L125.359 3.60841H124.217V8.16649L124.24 8.19526ZM135.31 8.19526H136.166V4.4314H137.805V8.16649H138.655V3.60841H135.304V8.16649L135.31 8.19526ZM144.53 8.19526H145.455L145.951 7.04423H147.59L148.052 8.19526H148.977L147.093 3.63719H146.414L144.53 8.19526ZM146.243 6.22125L146.779 4.89181L147.276 6.22125H146.243ZM154.892 8.19526H155.748V6.26153H157.387V8.16649H158.237V3.60841H157.387V5.43855H155.748V3.60841H154.892V8.16649V8.19526ZM164.506 3.63719V8.19526H165.322L167.349 5.00116V8.19526H168.205V3.60841H167.349L165.322 6.83705V3.60841L164.506 3.63719ZM174.468 3.63719V8.19526H175.267L177.294 5.00116V8.19526H178.15V3.60841H177.294L175.267 6.83705V3.60841L174.468 3.63719ZM175.216 2.52644C175.261 2.78207 175.398 3.01167 175.602 3.17029C175.806 3.32891 176.061 3.4051 176.318 3.38396C176.574 3.40016 176.827 3.32222 177.031 3.16456C177.235 3.0069 177.375 2.78021 177.425 2.52644H176.712C176.696 2.61941 176.648 2.70352 176.575 2.7629C176.503 2.82227 176.411 2.85281 176.318 2.84873C176.224 2.8568 176.131 2.82759 176.058 2.76736C175.986 2.70712 175.94 2.62065 175.93 2.52644H175.216Z" fill="#419146"/>
<path fill-rule="evenodd" clip-rule="evenodd" d="M41.4363 9.74347H180V10.7103H41.4363V9.74347Z" fill="#419146"/>
<path fill-rule="evenodd" clip-rule="evenodd" d="M62.3256 15.4123C64.6777 15.4123 66.1335 17.3115 66.1335 19.4409C66.1335 20.459 65.7323 21.4354 65.0182 22.1553C64.3041 22.8752 63.3355 23.2796 62.3256 23.2796C61.3157 23.2796 60.3471 22.8752 59.633 22.1553C58.9189 21.4354 58.5177 20.459 58.5177 19.4409C58.5177 17.2827 59.9792 15.4123 62.3256 15.4123ZM102.797 12.8282L99.6627 21.2941L96.6369 12.8225H93.0573L93.9137 14.9404C93.3122 14.1427 92.5348 13.497 91.643 13.0545C90.7512 12.612 89.7695 12.3848 88.7755 12.3908C87.7422 12.3908 85.6755 12.7131 84.5394 14.5433H84.4938V12.8167H81.6392V23.176H81.565L76.758 12.8167H73.9035L69.0965 23.176H68.2402C68.9303 22.0576 69.2889 20.7637 69.2735 19.4467C69.2681 17.8376 68.7133 16.2795 67.7024 15.0343C66.6914 13.7891 65.286 12.9327 63.7224 12.6092C62.1588 12.2857 60.5324 12.5148 59.1167 13.258C57.701 14.0012 56.5822 15.2131 55.9486 16.6899C55.4593 15.3914 54.5777 14.2806 53.4283 13.5144C52.279 12.7482 50.92 12.3653 49.5431 12.4196C48.6211 12.3832 47.7013 12.5349 46.8389 12.8656C45.9765 13.1963 45.1893 13.6993 44.5244 14.3442C43.8596 14.9892 43.3308 15.7629 42.9699 16.6189C42.6089 17.4749 42.4232 18.3956 42.4239 19.3258C42.4093 20.2818 42.5879 21.2307 42.9488 22.1148C43.3097 22.999 43.8454 23.7998 44.5232 24.4685C45.201 25.1373 46.0067 25.6599 46.8914 26.0046C47.776 26.3494 48.7209 26.5089 49.6687 26.4737C51.0215 26.5129 52.3529 26.1267 53.4782 25.3687C54.6034 24.6108 55.4668 23.5186 55.9486 22.2437C56.4164 23.3246 57.1458 24.27 58.0699 24.9933C58.994 25.7165 60.0833 26.1945 61.2382 26.3835C62.393 26.5724 63.5763 26.4663 64.6799 26.0749C65.7835 25.6834 66.7721 25.0192 67.5551 24.1429V29.3513H70.6494V26.0133H81.6392V29.3513H84.7678V24.5975H84.842C85.3075 25.1973 85.9056 25.6793 86.5885 26.005C87.2714 26.3307 88.0203 26.4912 88.7755 26.4737C92.9374 26.4737 95.3409 23.0551 95.3409 19.4294C95.3372 19.0446 95.3125 18.6604 95.2667 18.2784L97.9043 24.8047L95.9118 29.3513H99.3372L105.503 14.8023L108.597 19.1071L103.796 26.0133H107.53L111.766 19.6826V26.0133H114.934V19.6826L119.17 26.0133H122.87L118.103 19.1071L122.59 12.8282H118.885L114.934 18.8942V12.8282H111.766V18.8942L107.815 12.8282H102.797ZM88.4159 15.4123C91.0877 15.4123 92.1895 17.6395 92.1895 19.3949C92.2113 19.9195 92.1268 20.4432 91.9412 20.9339C91.7556 21.4246 91.4729 21.8721 91.1102 22.249C90.7475 22.6259 90.3124 22.9245 89.8315 23.1264C89.3507 23.3283 88.834 23.4294 88.3131 23.4235C86.1779 23.4235 84.5737 21.9156 84.5737 19.3949C84.5737 17.0928 86.138 15.3663 88.4159 15.3663V15.4123ZM144.364 21.743C144.05 22.2843 143.597 22.7303 143.052 23.0341C142.508 23.3379 141.892 23.4883 141.27 23.4695C140.743 23.4867 140.218 23.3938 139.728 23.1968C139.238 22.9998 138.793 22.7029 138.422 22.3247C138.051 21.9465 137.762 21.4951 137.572 20.9989C137.382 20.5026 137.296 19.9722 137.319 19.4409C137.293 18.9109 137.378 18.3813 137.567 17.8862C137.756 17.391 138.046 16.9414 138.418 16.5662C138.791 16.191 139.237 15.8985 139.728 15.7077C140.219 15.5169 140.744 15.432 141.27 15.4583C141.903 15.4255 142.531 15.5774 143.08 15.8959C143.629 16.2145 144.075 16.686 144.364 17.2539H147.887C147.736 16.6975 147.509 16.1649 147.213 15.6713H149.383V26.0305H152.517V15.6252H155.577V26.0305H161.166C164.118 26.0305 165.613 24.1313 165.613 22.0883C166.216 23.5961 167.32 24.8456 168.736 25.6222C170.153 26.3988 171.793 26.6542 173.376 26.3445C174.959 26.0347 176.385 25.1792 177.411 23.9247C178.436 22.6703 178.996 21.0951 178.995 19.4697C179.022 18.5341 178.862 17.6027 178.525 16.7306C178.189 15.8584 177.682 15.0632 177.035 14.392C176.388 13.7207 175.614 13.1872 174.759 12.8228C173.903 12.4585 172.984 12.2708 172.056 12.2708C171.128 12.2708 170.209 12.4585 169.353 12.8228C168.498 13.1872 167.724 13.7207 167.077 14.392C166.43 15.0632 165.923 15.8584 165.587 16.7306C165.25 17.6027 165.09 18.5341 165.117 19.4697C165.106 19.8298 165.128 20.1902 165.185 20.5459C164.728 19.798 164.002 19.2575 163.158 19.038C163.715 18.8174 164.196 18.4391 164.543 17.9489C164.891 17.4587 165.09 16.8775 165.117 16.2756C165.117 14.6584 164.015 12.8225 161.343 12.8225H146.254V14.3879C145.347 13.5263 144.235 12.9169 143.024 12.6193C141.814 12.3217 140.547 12.3461 139.349 12.6902C138.151 13.0342 137.062 13.6861 136.189 14.5819C135.315 15.4778 134.688 16.5869 134.368 17.8007C134.089 16.2586 133.272 14.8679 132.065 13.8799C130.858 12.892 129.34 12.372 127.785 12.4139C123.087 12.4139 120.843 16.5058 120.843 19.556C120.855 21.1578 121.414 22.7066 122.426 23.9421C123.437 25.1775 124.84 26.0244 126.397 26.3404C127.955 26.6563 129.574 26.4222 130.98 25.6772C132.387 24.9322 133.496 23.7218 134.122 22.2494H130.56C130.192 22.6556 129.74 22.9755 129.236 23.1863C128.732 23.3971 128.188 23.4938 127.643 23.4695C126.855 23.4992 126.082 23.2544 125.453 22.7764C124.824 22.2983 124.377 21.6163 124.189 20.8452H134.368C134.939 23.7227 137.222 26.4794 141.418 26.4794C142.864 26.5153 144.28 26.071 145.45 25.2151C146.62 24.3591 147.478 23.1391 147.893 21.743H144.364ZM52.5689 21.743C52.2544 22.2843 51.8011 22.7303 51.2567 23.0341C50.7122 23.3379 50.0966 23.4883 49.4746 23.4695C47.0539 23.4695 45.5582 21.6739 45.5582 19.4409C45.5315 18.9137 45.6143 18.3868 45.8012 17.8937C45.9881 17.4007 46.275 16.9524 46.6437 16.5775C47.0123 16.2026 47.4545 15.9095 47.942 15.7168C48.4294 15.524 48.9514 15.436 49.4746 15.4583C50.1085 15.4165 50.7406 15.5647 51.2912 15.8842C51.8418 16.2037 52.2864 16.6803 52.5689 17.2539H55.7374C55.4947 17.9669 55.3731 18.716 55.3777 19.4697C55.3666 20.2366 55.4863 20.9997 55.7317 21.7257L52.5689 21.743ZM72.6418 23.2163L75.3136 17.1158L77.9855 23.2163H72.6418ZM124.149 18.0366C124.396 17.2661 124.883 16.5959 125.536 16.1246C126.19 15.6533 126.976 15.4057 127.78 15.4181C128.561 15.3948 129.327 15.6418 129.951 16.1182C130.574 16.5946 131.016 17.2716 131.205 18.0366H124.149ZM158.711 20.6495H160.949C162.376 20.6495 162.519 21.6221 162.519 21.9789C162.519 22.5141 162.234 23.3084 160.949 23.3084H158.711V20.6495ZM158.711 15.5389H160.772C160.937 15.5179 161.103 15.5332 161.261 15.5838C161.419 15.6344 161.564 15.719 161.687 15.8319C161.809 15.9447 161.905 16.0829 161.969 16.2371C162.033 16.3912 162.063 16.5575 162.057 16.7245C162.055 16.8888 162.019 17.051 161.953 17.2009C161.886 17.3509 161.789 17.4854 161.669 17.5961C161.548 17.7068 161.407 17.7912 161.252 17.8443C161.098 17.8973 160.935 17.9177 160.772 17.9043H158.711V15.5389ZM172.059 15.395C174.405 15.395 175.867 17.2942 175.867 19.4236C175.887 19.9406 175.803 20.4563 175.62 20.9399C175.438 21.4234 175.16 21.8648 174.804 22.2377C174.448 22.6105 174.022 22.9071 173.549 23.1098C173.077 23.3124 172.569 23.4168 172.056 23.4168C171.543 23.4168 171.035 23.3124 170.563 23.1098C170.09 22.9071 169.664 22.6105 169.308 22.2377C168.952 21.8648 168.674 21.4234 168.492 20.9399C168.309 20.4563 168.225 19.9406 168.245 19.4236C168.245 17.2655 169.707 15.395 172.059 15.395Z" fill="#251B6A"/>
<path fill-rule="evenodd" clip-rule="evenodd" d="M10.7903 1.07619C19.9818 -2.44596 28.8993 3.37824 30.829 8.48306C25.5995 1.85313 11.6466 4.07462 6.71973 11.6196C7.07369 6.57235 8.83778 2.5495 10.7674 1.07619H10.7903Z" fill="#419146"/>
<path fill-rule="evenodd" clip-rule="evenodd" d="M6.24569 3.57396C2.52911 12.7304 2.50057 18.9172 4.76134 28.0448C3.13224 26.4077 1.86734 24.4399 1.05066 22.2722C0.233978 20.1044 -0.115781 17.7862 0.0246132 15.4717C0.165008 13.1571 0.792342 10.8992 1.86494 8.84787C2.93754 6.79654 4.43086 4.99876 6.24569 3.57396ZM6.05158 29.2649C9.01781 31.7456 12.7715 33.0655 16.6247 32.9827C27.3006 33.5122 35.5616 21.4725 32.2275 12.034C23.584 0.938103 6.27994 10.1751 6.05158 29.2649Z" fill="#251B6A"/>
</g>
<defs>
<clipPath id="clip0">
<rect width="180" height="33" fill="white"/>
</clipPath>
</defs>
</svg>
