<svg width="15" height="15" viewBox="0 0 15 15" fill="none" xmlns="http://www.w3.org/2000/svg">
<path d="M14.6064 11.5722L11.5703 9.54753C11.185 9.29266 10.6686 9.37652 10.3837 9.74025L9.49938 10.8773C9.38573 11.0272 9.17912 11.0707 9.01471 10.9793L8.84648 10.8866C8.28881 10.5826 7.59493 10.2042 6.19688 8.80564C4.79884 7.4071 4.41965 6.71269 4.11568 6.15604L4.02344 5.98782C3.93084 5.82343 3.97349 5.61595 4.12341 5.50139L5.25973 4.61728C5.62331 4.33241 5.70729 3.8161 5.45271 3.4307L3.42801 0.394644C3.1671 0.00218297 2.64364 -0.115632 2.23973 0.127174L0.970159 0.889805C0.571253 1.12432 0.278592 1.50413 0.153542 1.94964C-0.303626 3.61539 0.0402969 6.49021 4.27518 10.7256C7.64393 14.0941 10.1518 15 11.8756 15C12.2723 15.0017 12.6674 14.95 13.0504 14.8465C13.496 14.7216 13.8759 14.4289 14.1102 14.0299L14.8736 12.7611C15.1168 12.3571 14.999 11.8333 14.6064 11.5722ZM14.4429 12.5046L13.6813 13.7742C13.513 14.0622 13.2398 14.2739 12.9189 14.3651C11.3811 14.7873 8.69451 14.4376 4.62885 10.3719C0.563198 6.30626 0.213533 3.6199 0.635726 2.08189C0.727002 1.76061 0.939021 1.48705 1.22738 1.3185L2.49694 0.556866C2.6722 0.451413 2.89939 0.502529 3.01261 0.672835L4.11246 2.32408L5.03558 3.70862C5.14613 3.8758 5.10981 4.09986 4.9521 4.22356L3.81552 5.10767C3.46963 5.37215 3.37086 5.8507 3.58381 6.23051L3.67406 6.39449C3.99353 6.98039 4.39071 7.70928 5.84074 9.15908C7.29078 10.6089 8.01943 11.0061 8.60508 11.3255L8.76929 11.416C9.14907 11.6289 9.62765 11.5302 9.89213 11.1843L10.7762 10.0477C10.9 9.89008 11.1239 9.85379 11.2912 9.96422L14.327 11.9889C14.4974 12.102 14.5485 12.3294 14.4429 12.5046Z" fill="white"/>
<path d="M8.49947 2.50134C10.8452 2.50395 12.7462 4.40495 12.7488 6.75073C12.7488 6.88878 12.8607 7.00068 12.9988 7.00068C13.1369 7.00068 13.2488 6.88878 13.2488 6.75073C13.2459 4.12895 11.1212 2.0043 8.49947 2.00143C8.36141 2.00143 8.24951 2.11333 8.24951 2.25139C8.24951 2.38944 8.36141 2.50134 8.49947 2.50134Z" fill="white"/>
<path d="M8.49946 4.0011C10.0173 4.00288 11.2473 5.23288 11.2491 6.75071C11.2491 6.88876 11.361 7.00066 11.499 7.00066C11.6371 7.00066 11.749 6.88876 11.749 6.75071C11.7469 4.95689 10.2932 3.50324 8.49946 3.50119C8.36141 3.50119 8.24951 3.61309 8.24951 3.75114C8.24951 3.8892 8.36141 4.0011 8.49946 4.0011Z" fill="white"/>
<path d="M8.49947 5.50085C9.18936 5.50167 9.74844 6.06075 9.74929 6.75068C9.74929 6.88873 9.86122 7.00063 9.99924 7.00063C10.1373 7.00063 10.2492 6.88873 10.2492 6.75068C10.2481 5.78479 9.46536 5.00203 8.49947 5.00095C8.36141 5.00095 8.24951 5.11284 8.24951 5.2509C8.24951 5.38896 8.36141 5.50085 8.49947 5.50085Z" fill="white"/>
</svg>
