<svg width="60" height="60" viewBox="0 0 60 60" fill="none" xmlns="http://www.w3.org/2000/svg">
<path d="M20.4785 2.00613L15.4633 0L14.719 1.86363L18.8034 3.49664L17.1695 7.58016L19.0322 8.32547L21.0373 3.3102C21.2428 2.79551 20.9931 2.21273 20.4785 2.00613Z" fill="#251B6A"/>
<path d="M59.3252 23.9591C57.6992 16.1252 53.1222 9.39269 46.4349 5.00226C39.7464 0.612887 31.7491 -0.90973 23.9152 0.713199L24.3224 2.67714C31.6307 1.1605 39.0935 2.58281 45.3336 6.67933C51.5726 10.7759 55.8436 17.057 57.3592 24.3663C58.8759 31.6746 57.4545 39.1364 53.357 45.3764C49.2605 51.6155 42.9794 55.8865 35.6701 57.4021C28.3628 58.9176 20.9 57.4973 14.66 53.3999C8.41998 49.3033 4.14885 43.0222 2.63326 35.7129C-0.107053 22.5006 6.97857 9.22511 19.4806 4.14761L18.7253 2.2889C5.32553 7.73156 -2.26764 21.9589 0.669315 36.1201C2.2933 43.953 6.87017 50.6856 13.5586 55.0769C18.5007 58.3209 24.157 60 29.9345 60C31.9757 59.9989 34.032 59.7903 36.0793 59.3681C43.9122 57.7421 50.6447 53.1651 55.0361 46.4778C59.4265 39.7894 60.9492 31.793 59.3252 23.9591Z" fill="#251B6A"/>
<path d="M31.1443 6.95013H29.1382V10.9624H31.1443V6.95013Z" fill="#251B6A"/>
<path d="M31.1443 49.0787H29.1382V53.091H31.1443V49.0787Z" fill="#251B6A"/>
<path d="M19.4697 9.53917L17.7317 10.5408L19.735 14.0169L21.473 13.0153L19.4697 9.53917Z" fill="#251B6A"/>
<path d="M40.5371 46.0205L38.7998 47.0219L40.8036 50.4982L42.5409 49.4968L40.5371 46.0205Z" fill="#251B6A"/>
<path d="M10.6557 17.6118L9.65405 19.3499L13.1302 21.3531L14.1318 19.6151L10.6557 17.6118Z" fill="#251B6A"/>
<path d="M47.1349 38.6828L46.1338 40.42L49.6185 42.4282L50.6197 40.691L47.1349 38.6828Z" fill="#251B6A"/>
<path d="M11.0831 29.0175H7.0708V31.0236H11.0831V29.0175Z" fill="#251B6A"/>
<path d="M53.2115 29.0175H49.1992V31.0236H53.2115V29.0175Z" fill="#251B6A"/>
<path d="M13.1349 38.6847L9.65894 40.6893L10.6613 42.4273L14.1372 40.4228L13.1349 38.6847Z" fill="#251B6A"/>
<path d="M49.6238 17.6124L46.1384 19.6204L47.1394 21.3579L50.6248 19.3499L49.6238 17.6124Z" fill="#251B6A"/>
<path d="M19.7341 46.0208L17.7312 49.4974L19.4687 50.4984L21.4716 47.0218L19.7341 46.0208Z" fill="#251B6A"/>
<path d="M40.8044 9.53914L38.7998 13.0151L40.5378 14.0174L42.5424 10.5415L40.8044 9.53914Z" fill="#251B6A"/>
<path d="M22.7436 33.3046L26.3867 28.6284C27.5192 27.1669 28.1381 25.3443 28.1311 23.5007C28.1311 21.0121 26.1059 18.987 23.6173 18.987C21.1287 18.987 19.1035 21.0121 19.1035 23.5007V25.0053H21.1096V23.5007C21.1096 22.1185 22.2351 20.993 23.6173 20.993C24.9996 20.993 26.125 22.1185 26.125 23.5047C26.1301 24.907 25.6596 26.2902 24.802 27.3975L21.1589 32.0749C19.8439 33.7721 19.1136 35.8905 19.1036 38.04C19.1026 38.3078 19.207 38.5636 19.3955 38.7522C19.5841 38.9418 19.8399 39.0481 20.1068 39.0481H28.1313V37.042H21.1811C21.3655 35.6869 21.9051 34.387 22.7436 33.3046Z" fill="#251B6A"/>
<path d="M31.4431 33.0298L35.1193 19.2457L33.1814 18.7281L29.1681 33.774C29.0879 34.0759 29.1521 34.3969 29.3417 34.6437C29.5313 34.8905 29.8252 35.0359 30.1372 35.0359H40.1677H40.1688V33.0298H31.4431Z" fill="#251B6A"/>
<path d="M38.1656 30.0205H36.1594V39.048H38.1656V30.0205Z" fill="#251B6A"/>
</svg>
