<svg width="61" height="39" viewBox="0 0 61 39" fill="none" xmlns="http://www.w3.org/2000/svg">
<path d="M8.81641 21.168H14.0586V4.48828H8.81641V21.168ZM10.2461 5.91797H12.6289V19.7383H10.2461V5.91797Z" fill="#251B6A"/>
<path d="M27.8789 21.168H33.1211V4.48828H27.8789V21.168ZM29.3086 5.91797H31.6914V19.7383H29.3086V5.91797Z" fill="#251B6A"/>
<path d="M46.9414 21.168H52.1836V4.48828H46.9414V21.168ZM48.3711 5.91797H50.7539V19.7383H48.3711V5.91797Z" fill="#251B6A"/>
<path d="M37.4102 21.168H42.6523V4.48828H37.4102V21.168ZM38.8398 5.91797H41.2227V19.7383H38.8398V5.91797Z" fill="#251B6A"/>
<path d="M18.3477 21.168H23.5898V4.48828H18.3477V21.168ZM19.7773 5.91797H22.1602V19.7383H19.7773V5.91797Z" fill="#251B6A"/>
<path d="M61 27.3633H57.9023V0.675781H3.09766V27.3633H0V32.6055H5.16415C5.06038 32.9854 5.00391 33.3845 5.00391 33.7969C5.00391 36.2932 7.0349 38.3242 9.53125 38.3242C12.0276 38.3242 14.0586 36.2932 14.0586 33.7969C14.0586 33.3845 14.0021 32.9854 13.8983 32.6055H16.6017C16.4979 32.9854 16.4414 33.3845 16.4414 33.7969C16.4414 36.2932 18.4724 38.3242 20.9688 38.3242C23.4651 38.3242 25.4961 36.2932 25.4961 33.7969C25.4961 33.3845 25.4396 32.9854 25.3358 32.6055H35.6642C35.5604 32.9854 35.5039 33.3845 35.5039 33.7969C35.5039 36.2932 37.5349 38.3242 40.0312 38.3242C42.5276 38.3242 44.5586 36.2932 44.5586 33.7969C44.5586 33.3845 44.5021 32.9854 44.3983 32.6055H47.1017C46.9979 32.9854 46.9414 33.3845 46.9414 33.7969C46.9414 36.2932 48.9724 38.3242 51.4688 38.3242C53.9651 38.3242 55.9961 36.2932 55.9961 33.7969C55.9961 33.3845 55.9396 32.9854 55.8358 32.6055H61V27.3633ZM4.52734 2.10547H56.4727V23.5508H4.52734V2.10547ZM4.52734 24.9805H56.4727V27.3633H4.52734V24.9805ZM9.53125 36.8945C7.82325 36.8945 6.43359 35.5049 6.43359 33.7969C6.43359 32.0889 7.82325 30.6992 9.53125 30.6992C11.2393 30.6992 12.6289 32.0889 12.6289 33.7969C12.6289 35.5049 11.2393 36.8945 9.53125 36.8945ZM20.9688 36.8945C19.2607 36.8945 17.8711 35.5049 17.8711 33.7969C17.8711 32.0889 19.2607 30.6992 20.9688 30.6992C22.6768 30.6992 24.0664 32.0889 24.0664 33.7969C24.0664 35.5049 22.6768 36.8945 20.9688 36.8945ZM40.0312 36.8945C38.3231 36.8945 36.9336 35.5049 36.9336 33.7969C36.9336 32.0889 38.3231 30.6992 40.0312 30.6992C41.7394 30.6992 43.1289 32.0889 43.1289 33.7969C43.1289 35.5049 41.7394 36.8945 40.0312 36.8945ZM51.4688 36.8945C49.7606 36.8945 48.3711 35.5049 48.3711 33.7969C48.3711 32.0889 49.7606 30.6992 51.4688 30.6992C53.1769 30.6992 54.5664 32.0889 54.5664 33.7969C54.5664 35.5049 53.1769 36.8945 51.4688 36.8945ZM59.5703 31.1758H55.1566C54.3352 30.0232 52.9887 29.2695 51.4688 29.2695C49.9488 29.2695 48.6023 30.0232 47.7809 31.1758H43.7192C42.8978 30.0232 41.5514 29.2695 40.0314 29.2695C38.5114 29.2695 37.165 30.0232 36.3435 31.1758H24.6569C23.8354 30.0232 22.489 29.2695 20.969 29.2695C19.449 29.2695 18.1026 30.0232 17.2811 31.1758H13.2195C12.398 30.0232 11.0516 29.2695 9.53161 29.2695C8.01161 29.2695 6.6652 30.0232 5.84373 31.1758H1.42969V28.793H59.5703V31.1758Z" fill="#251B6A"/>
<path d="M9.53125 31.6523C8.34878 31.6523 7.38672 32.6144 7.38672 33.7969C7.38672 34.9793 8.34878 35.9414 9.53125 35.9414C10.7137 35.9414 11.6758 34.9793 11.6758 33.7969C11.6758 32.6144 10.7137 31.6523 9.53125 31.6523ZM9.53125 34.5117C9.13701 34.5117 8.81641 34.1911 8.81641 33.7969C8.81641 33.4026 9.13701 33.082 9.53125 33.082C9.92549 33.082 10.2461 33.4026 10.2461 33.7969C10.2461 34.1911 9.92549 34.5117 9.53125 34.5117Z" fill="#251B6A"/>
<path d="M20.9688 31.6523C19.7863 31.6523 18.8242 32.6144 18.8242 33.7969C18.8242 34.9793 19.7863 35.9414 20.9688 35.9414C22.1512 35.9414 23.1133 34.9793 23.1133 33.7969C23.1133 32.6144 22.1512 31.6523 20.9688 31.6523ZM20.9688 34.5117C20.5745 34.5117 20.2539 34.1911 20.2539 33.7969C20.2539 33.4026 20.5745 33.082 20.9688 33.082C21.363 33.082 21.6836 33.4026 21.6836 33.7969C21.6836 34.1911 21.363 34.5117 20.9688 34.5117Z" fill="#251B6A"/>
<path d="M40.0312 31.6523C38.8488 31.6523 37.8867 32.6144 37.8867 33.7969C37.8867 34.9793 38.8488 35.9414 40.0312 35.9414C41.2137 35.9414 42.1758 34.9793 42.1758 33.7969C42.1758 32.6144 41.2137 31.6523 40.0312 31.6523ZM40.0312 34.5117C39.637 34.5117 39.3164 34.1911 39.3164 33.7969C39.3164 33.4026 39.637 33.082 40.0312 33.082C40.4255 33.082 40.7461 33.4026 40.7461 33.7969C40.7461 34.1911 40.4255 34.5117 40.0312 34.5117Z" fill="#251B6A"/>
<path d="M51.4688 31.6523C50.2863 31.6523 49.3242 32.6144 49.3242 33.7969C49.3242 34.9793 50.2863 35.9414 51.4688 35.9414C52.6512 35.9414 53.6133 34.9793 53.6133 33.7969C53.6133 32.6144 52.6512 31.6523 51.4688 31.6523ZM51.4688 34.5117C51.0745 34.5117 50.7539 34.1911 50.7539 33.7969C50.7539 33.4026 51.0745 33.082 51.4688 33.082C51.863 33.082 52.1836 33.4026 52.1836 33.7969C52.1836 34.1911 51.863 34.5117 51.4688 34.5117Z" fill="#251B6A"/>
</svg>
