<svg width="55" height="46" viewBox="0 0 55 46" fill="none" xmlns="http://www.w3.org/2000/svg">
<path d="M53.5 36.7769C53.0214 36.7769 52.6333 37.1645 52.6333 37.6436V38.5103H49.0936C48.7606 36.1876 47.1142 34.2601 44.8333 33.5794V31.9747C44.8333 30.3892 43.8719 29.0268 42.5031 28.4314L45.5206 17.6063C46.6197 17.3027 47.4333 16.3045 47.4333 15.11C47.4333 13.6764 46.267 12.51 44.8333 12.51H43.8843L43.0956 4.62381C43.08 4.46629 43.0215 4.31658 42.9264 4.19048L40.3264 0.723809C40.1631 0.505409 39.9063 0.376709 39.6333 0.376709H34.4333C34.1603 0.376709 33.9035 0.505409 33.7402 0.723809L31.632 3.53463L29.7141 2.25586C29.5719 2.16096 29.4043 2.11026 29.2333 2.11026H24.9C24.7126 2.11026 24.5301 2.17114 24.38 2.28381L21.1443 4.71026H17.1C16.9126 4.71026 16.7301 4.77114 16.58 4.88381L13.1133 7.48381C12.9762 7.58716 12.8726 7.72843 12.8154 7.89006L11.1949 12.5103H10.1666C8.73295 12.5103 7.56663 13.6766 7.56663 15.1103C7.56663 16.3045 8.38043 17.3027 9.47937 17.6065L12.4967 28.4316C11.128 29.0265 10.1666 30.3892 10.1666 31.9747V33.5865C7.90962 34.2632 6.24735 36.1934 5.90978 38.5103H2.36663V37.6436C2.36663 37.1645 1.97858 36.7769 1.49997 36.7769C1.02135 36.7769 0.633301 37.1645 0.633301 37.6436V41.1103C0.633301 41.5893 1.02135 41.9769 1.49997 41.9769C1.97858 41.9769 2.36663 41.5893 2.36663 41.1103V40.2436H5.90263C6.32535 43.1783 8.84995 45.4436 11.9 45.4436C14.955 45.4436 17.4826 43.1714 17.8995 40.2302C17.9229 40.2321 17.9428 40.2436 17.9666 40.2436H21.9412L24.2872 42.5897C24.4497 42.7522 24.6703 42.8436 24.9 42.8436H30.1C30.3299 42.8436 30.5502 42.7522 30.7127 42.5897L33.0588 40.2436H37.1024C37.5251 43.1783 40.0497 45.4436 43.0998 45.4436C46.1498 45.4436 48.6744 43.1783 49.0971 40.2436H52.6333V41.1103C52.6333 41.5893 53.0214 41.9769 53.5 41.9769C53.9786 41.9769 54.3666 41.5893 54.3666 41.1103V37.6436C54.3666 37.1645 53.9786 36.7769 53.5 36.7769ZM14.2068 28.1103L11.308 17.7103H43.6919L40.7929 28.1103H14.2068ZM14.3641 8.71253L17.389 6.44338H21.4333C21.6207 6.44338 21.8032 6.38249 21.9533 6.26982L25.189 3.84338H28.9709L31.3525 5.43111C31.7339 5.68504 32.2497 5.59859 32.5264 5.22961L34.8666 2.11026H39.2L41.395 5.03699L42.1423 12.5103H39.6333V9.91026C39.6333 9.72241 39.5724 9.54041 39.4598 9.39069L36.8598 5.92402C36.6089 5.58711 36.1525 5.48137 35.779 5.66836L30.579 8.26836C30.1507 8.48242 29.9773 9.00308 30.1914 9.43121C30.405 9.85869 30.9253 10.0314 31.3543 9.81883L35.9073 7.54209L37.9 10.1989V12.5103H21.6957L21.9141 12.3647C22.1552 12.2039 22.3 11.9331 22.3 11.6436V9.91026H25.7666C26.2453 9.91026 26.6333 9.52264 26.6333 9.04359C26.6333 8.56454 26.2453 8.17693 25.7666 8.17693H21.4333C20.9547 8.17693 20.5666 8.56454 20.5666 9.04359V11.1797L18.5709 12.5103H13.0321L14.3641 8.71253ZM10.1666 14.2436H44.8333C45.3111 14.2436 45.7 14.6321 45.7 15.1103C45.7 15.5884 45.3111 15.9769 44.8333 15.9769H10.1666C9.68888 15.9769 9.29997 15.5884 9.29997 15.1103C9.29997 14.6321 9.68888 14.2436 10.1666 14.2436ZM11.9 31.9747C11.9 30.8 12.8559 29.8436 14.0311 29.8436H40.9688C42.144 29.8436 43.1 30.8 43.1 31.9747V35.9103H11.9V31.9747ZM11.9 43.7103C9.51078 43.7103 7.56663 41.7661 7.56663 39.3769C7.56663 37.6356 8.6218 36.0946 10.1666 35.4156V36.7769C10.1666 37.256 10.5547 37.6436 11.0333 37.6436H15.8652C16.1046 38.1898 16.2333 38.7703 16.2333 39.3769C16.2333 41.7661 14.2892 43.7103 11.9 43.7103ZM32.7 38.5103C32.4701 38.5103 32.2497 38.6017 32.0872 38.7642L29.7412 41.1103H25.2588L22.9127 38.7642C22.7502 38.6017 22.5296 38.5103 22.3 38.5103H17.9666C17.9428 38.5103 17.9229 38.522 17.8995 38.5237C17.857 38.2251 17.789 37.932 17.7032 37.6436H37.2935C37.2088 37.9274 37.1438 38.2162 37.1018 38.5103H32.7ZM43.1 43.7103C40.7108 43.7103 38.7666 41.7661 38.7666 39.3769C38.7666 38.7718 38.8938 38.1905 39.1332 37.6436H43.9666C44.4453 37.6436 44.8333 37.256 44.8333 36.7769V35.4046C46.3937 36.0819 47.4333 37.6273 47.4333 39.3769C47.4333 41.7661 45.4892 43.7103 43.1 43.7103Z" fill="#251B6A"/>
</svg>
