<svg width="60" height="60" viewBox="0 0 60 60" fill="none" xmlns="http://www.w3.org/2000/svg">
<path d="M57.1911 53.4875L49.2629 29.7028C49.101 29.2171 48.5604 28.9466 48.0745 29.1086C47.5889 29.2705 47.3185 29.8111 47.4804 30.297L55.4085 54.0817C55.7243 55.0289 55.5705 56.0366 54.9867 56.8466C54.403 57.6565 53.4956 58.1211 52.4972 58.1211H7.50303C6.5046 58.1211 5.59721 57.6566 5.0135 56.8467C4.42979 56.0368 4.27592 55.0289 4.59174 54.0818L15.9487 20.0108C16.3671 18.7557 17.5371 17.9125 18.8601 17.9125H41.1404C42.4635 17.9125 43.6333 18.7557 44.0518 20.0108L46.1821 26.4016C46.3461 26.8939 46.8778 27.1598 47.3705 26.9959C47.8626 26.8318 48.1287 26.2998 47.9646 25.8075L45.8344 19.4167C45.1597 17.393 43.2732 16.0334 41.1403 16.0334H32.9437V13.2479C35.3093 12.1375 36.9521 9.73348 36.9521 6.95191C36.9521 3.11859 33.8335 0 30.0001 0C26.1667 0 23.0481 3.11859 23.0481 6.95203C23.0481 9.73359 24.6908 12.1376 27.0565 13.248V16.0335H18.8599C16.7269 16.0335 14.8405 17.3931 14.166 19.4167L2.80897 53.4875C2.30003 55.0146 2.54788 56.6393 3.48901 57.9452C4.43038 59.2511 5.89323 60 7.50303 60H52.4974C54.1071 60 55.5701 59.2511 56.5113 57.9452C57.4523 56.6394 57.7002 55.0146 57.1911 53.4875ZM31.0649 16.0334H28.9355V13.8224C29.2827 13.8759 29.6381 13.9039 30.0002 13.9039C30.3622 13.9039 30.7178 13.8761 31.065 13.8224V16.0334H31.0649ZM24.9271 6.95203C24.9271 4.15465 27.2028 1.87898 30.0001 1.87898C32.7974 1.87898 35.0732 4.15477 35.0732 6.95203C35.0732 9.7493 32.7974 12.0251 30.0001 12.0251C27.203 12.0251 24.9271 9.7493 24.9271 6.95203Z" fill="#251B6A"/>
<path d="M29.9999 3.00623C27.8242 3.00623 26.0542 4.77634 26.0542 6.95193C26.0542 9.12751 27.8243 10.8976 29.9999 10.8976C32.1755 10.8976 33.9456 9.12763 33.9456 6.95193C33.9456 4.77623 32.1756 3.00623 29.9999 3.00623ZM29.9999 9.01876C28.8603 9.01876 27.9331 8.09158 27.9331 6.95193C27.9331 5.81228 28.8603 4.88521 29.9999 4.88521C31.1396 4.88521 32.0667 5.8124 32.0667 6.95204C32.0667 8.09169 31.1396 9.01876 29.9999 9.01876Z" fill="#251B6A"/>
<path d="M30.0001 22.0459C21.1938 22.0459 14.0293 29.2103 14.0293 38.0167C14.0293 46.8231 21.1938 53.9875 30.0001 53.9875C38.8064 53.9875 45.9709 46.8231 45.9709 38.0167C45.9709 29.2103 38.8065 22.0459 30.0001 22.0459ZM30.0001 52.1086C22.2297 52.1086 15.9082 45.787 15.9082 38.0167C15.9082 30.2463 22.2297 23.9249 30.0001 23.9249C37.7703 23.9249 44.092 30.2464 44.092 38.0167C44.092 45.7869 37.7703 52.1086 30.0001 52.1086Z" fill="#251B6A"/>
<path d="M31.5312 42.6719C31.9792 42.6719 32.4271 42.6016 32.875 42.4609V43.8438C32.6719 43.9323 32.4089 44.0052 32.0859 44.0625C31.7682 44.125 31.4375 44.1562 31.0938 44.1562C29.3542 44.1562 28.4844 43.2396 28.4844 41.4062V36.75H27.3047V35.9375L28.5703 35.2656L29.1953 33.4375H30.3281V35.3594H32.7891V36.75H30.3281V41.375C30.3281 41.8177 30.4375 42.1458 30.6562 42.3594C30.8802 42.5677 31.1719 42.6719 31.5312 42.6719Z" fill="#251B6A"/>
</svg>
